# xmcd CD database file
#
# Track frame offsets:
#	150
#	15056
#	29986
#	45729
#	62679
#	75501
#	93148
#	109745
#	125413
#	141465
#	159171
#	174179
#	185128
#	200839
#	214785
#
# Disc length: 3059 seconds
#
# Revision: 0
# Processed by: cddbd v1.5.2PL0 Copyright (c) Steve Scherf et al.
# Submitted via: CDex 1.70beta2
#
DISCID=c90bf10f
DTITLE=Paolo Conte - PSICHE
DYEAR=2008
DGENRE=Jazz
TTITLE0=Psiche
TTITLE1=Il quadrato e il cerchio
TTITLE2=Intimità
TTITLE3=Big Bill
TTITLE4=L'amore che
TTITLE5=Silvery Fox
TTITLE6=Bella di giorno
TTITLE7=Velocità silenziosa
TTITLE8=Omicron
TTITLE9=Ludmilla
TTITLE10=Leggenda e popolo
TTITLE11=Danza della Vanità
TTITLE12=Coup de Theatre
TTITLE13=Cosi o non così
TTITLE14=Berlino
EXTD=YEAR: 2008
EXTT0=
EXTT1=
EXTT2=
EXTT3=
EXTT4=
EXTT5=
EXTT6=
EXTT7=
EXTT8=
EXTT9=
EXTT10=
EXTT11=
EXTT12=
EXTT13=
EXTT14=
PLAYORDER=
